<svg xmlns="http://www.w3.org/2000/svg" width="1920" height="1080" viewBox="0 0 1920 1080">
<defs>
<radialGradient id="deep" cx="50%" cy="45%" r="90%">
  <stop offset="0%" stop-color="#0b1226"/>
  <stop offset="60%" stop-color="#060a18"/>
  <stop offset="100%" stop-color="#02030a"/>
</radialGradient>
<radialGradient id="neb1" cx="50%" cy="50%" r="50%">
  <stop offset="0%" stop-color="#2b3f7a" stop-opacity=".28"/>
  <stop offset="100%" stop-color="#2b3f7a" stop-opacity="0"/>
</radialGradient>
<radialGradient id="neb2" cx="50%" cy="50%" r="50%">
  <stop offset="0%" stop-color="#5a3a7a" stop-opacity=".2"/>
  <stop offset="100%" stop-color="#5a3a7a" stop-opacity="0"/>
</radialGradient>
<radialGradient id="neb3" cx="50%" cy="50%" r="50%">
  <stop offset="0%" stop-color="#1e5a6e" stop-opacity=".16"/>
  <stop offset="100%" stop-color="#1e5a6e" stop-opacity="0"/>
</radialGradient>
</defs>
<rect width="1920" height="1080" fill="url(#deep)"/>
<ellipse cx="420" cy="260" rx="620" ry="380" fill="url(#neb1)"/>
<ellipse cx="1560" cy="820" rx="700" ry="420" fill="url(#neb2)"/>
<ellipse cx="1240" cy="180" rx="520" ry="300" fill="url(#neb3)"/>
<circle cx="246.1" cy="365.7" r="0.45" fill="#cfe3ff" opacity="0.85"/>
<circle cx="132.4" cy="897.6" r="1.74" fill="#ffffff" opacity="0.77"/>
<circle cx="1581.7" cy="148.5" r="0.39" fill="#ffffff" opacity="0.66"/>
<circle cx="1627.7" cy="842.0" r="0.31" fill="#ffe9c9" opacity="0.27"/>
<circle cx="1322.2" cy="380.2" r="1.44" fill="#cfe3ff" opacity="0.54"/>
<circle cx="576.2" cy="45.3" r="0.49" fill="#ffffff" opacity="0.62"/>
<circle cx="1378.2" cy="412.1" r="0.36" fill="#ffe9c9" opacity="0.77"/>
<circle cx="614.3" cy="20.5" r="0.31" fill="#ffd9d9" opacity="0.92"/>
<circle cx="13.3" cy="44.3" r="0.49" fill="#cfe3ff" opacity="0.99"/>
<circle cx="814.8" cy="516.4" r="1.44" fill="#cfe3ff" opacity="0.82"/>
<circle cx="1863.5" cy="746.7" r="0.33" fill="#ffffff" opacity="0.52"/>
<circle cx="574.8" cy="157.7" r="1.12" fill="#ffffff" opacity="0.67"/>
<circle cx="1200.6" cy="884.2" r="1.75" fill="#ffd9d9" opacity="0.82"/>
<circle cx="1747.5" cy="154.6" r="1.07" fill="#ffe9c9" opacity="0.41"/>
<circle cx="1463.9" cy="511.8" r="0.68" fill="#ffd9d9" opacity="0.30"/>
<circle cx="401.0" cy="306.8" r="0.38" fill="#ffffff" opacity="0.82"/>
<circle cx="121.4" cy="279.2" r="0.73" fill="#ffffff" opacity="0.93"/>
<circle cx="1092.5" cy="842.2" r="0.68" fill="#ffe9c9" opacity="0.45"/>
<circle cx="1419.2" cy="127.3" r="0.66" fill="#ffffff" opacity="0.37"/>
<circle cx="683.5" cy="1007.2" r="1.63" fill="#ffffff" opacity="0.42"/>
<circle cx="1803.6" cy="785.8" r="0.46" fill="#ffd9d9" opacity="0.53"/>
<circle cx="1852.4" cy="493.6" r="0.62" fill="#cfe3ff" opacity="0.51"/>
<circle cx="589.2" cy="102.3" r="1.02" fill="#ffffff" opacity="0.92"/>
<circle cx="511.4" cy="972.6" r="0.32" fill="#ffe9c9" opacity="0.92"/>
<circle cx="673.5" cy="109.3" r="0.39" fill="#ffd9d9" opacity="0.35"/>
<circle cx="429.5" cy="444.4" r="0.30" fill="#ffd9d9" opacity="0.84"/>
<circle cx="1639.4" cy="655.8" r="0.74" fill="#cfe3ff" opacity="0.56"/>
<circle cx="609.0" cy="749.7" r="1.71" fill="#ffffff" opacity="0.30"/>
<circle cx="203.4" cy="429.0" r="0.66" fill="#ffffff" opacity="0.36"/>
<circle cx="1834.5" cy="485.9" r="0.30" fill="#ffd9d9" opacity="0.56"/>
<circle cx="1230.2" cy="111.4" r="0.30" fill="#ffd9d9" opacity="0.57"/>
<circle cx="1726.1" cy="832.0" r="1.47" fill="#ffffff" opacity="0.57"/>
<circle cx="1015.6" cy="771.8" r="1.53" fill="#ffffff" opacity="0.89"/>
<circle cx="1831.8" cy="679.2" r="0.52" fill="#ffffff" opacity="0.55"/>
<circle cx="1479.9" cy="154.0" r="0.47" fill="#ffe9c9" opacity="0.27"/>
<circle cx="1706.3" cy="803.7" r="0.90" fill="#cfe3ff" opacity="0.77"/>
<circle cx="1531.5" cy="309.5" r="0.67" fill="#cfe3ff" opacity="0.71"/>
<circle cx="871.7" cy="905.4" r="0.36" fill="#ffe9c9" opacity="0.76"/>
<circle cx="924.9" cy="309.8" r="0.55" fill="#cfe3ff" opacity="0.26"/>
<circle cx="885.2" cy="913.4" r="0.30" fill="#cfe3ff" opacity="0.99"/>
<circle cx="1819.6" cy="948.4" r="1.39" fill="#ffffff" opacity="0.56"/>
<circle cx="1919.3" cy="441.0" r="0.44" fill="#ffffff" opacity="0.76"/>
<circle cx="1571.7" cy="770.2" r="0.68" fill="#ffffff" opacity="0.39"/>
<circle cx="1827.0" cy="1072.5" r="0.59" fill="#cfe3ff" opacity="0.65"/>
<circle cx="344.1" cy="273.9" r="1.29" fill="#ffffff" opacity="0.79"/>
<circle cx="1736.8" cy="408.0" r="1.76" fill="#ffffff" opacity="0.69"/>
<circle cx="462.9" cy="524.5" r="0.31" fill="#ffffff" opacity="0.46"/>
<circle cx="1431.1" cy="1009.5" r="0.33" fill="#cfe3ff" opacity="0.65"/>
<circle cx="1799.4" cy="131.1" r="0.54" fill="#ffe9c9" opacity="0.29"/>
<circle cx="323.1" cy="711.6" r="0.31" fill="#cfe3ff" opacity="0.96"/>
<circle cx="633.0" cy="137.9" r="0.39" fill="#ffffff" opacity="0.44"/>
<circle cx="1493.5" cy="367.5" r="1.60" fill="#cfe3ff" opacity="0.90"/>
<circle cx="1768.2" cy="258.0" r="1.44" fill="#ffffff" opacity="0.84"/>
<circle cx="1201.6" cy="419.8" r="0.39" fill="#ffffff" opacity="0.31"/>
<circle cx="344.1" cy="115.1" r="0.36" fill="#ffd9d9" opacity="0.67"/>
<circle cx="307.3" cy="623.0" r="1.14" fill="#cfe3ff" opacity="0.55"/>
<circle cx="103.2" cy="153.2" r="0.41" fill="#cfe3ff" opacity="0.96"/>
<circle cx="953.0" cy="923.2" r="0.31" fill="#ffffff" opacity="0.36"/>
<circle cx="577.0" cy="122.4" r="0.53" fill="#ffffff" opacity="0.58"/>
<circle cx="449.3" cy="21.3" r="1.72" fill="#ffe9c9" opacity="0.42"/>
<circle cx="450.9" cy="221.7" r="1.07" fill="#ffffff" opacity="0.63"/>
<circle cx="739.3" cy="349.4" r="0.42" fill="#cfe3ff" opacity="0.85"/>
<circle cx="816.8" cy="747.3" r="0.77" fill="#ffffff" opacity="0.39"/>
<circle cx="1390.0" cy="794.0" r="0.31" fill="#cfe3ff" opacity="0.73"/>
<circle cx="143.1" cy="529.2" r="0.41" fill="#ffffff" opacity="0.85"/>
<circle cx="590.5" cy="441.6" r="0.79" fill="#ffffff" opacity="0.41"/>
<circle cx="1552.6" cy="705.3" r="0.31" fill="#ffffff" opacity="0.63"/>
<circle cx="7.1" cy="533.4" r="0.63" fill="#cfe3ff" opacity="0.61"/>
<circle cx="1544.6" cy="69.2" r="1.16" fill="#ffffff" opacity="0.80"/>
<circle cx="959.5" cy="351.7" r="0.81" fill="#cfe3ff" opacity="0.38"/>
<circle cx="653.8" cy="5.1" r="1.39" fill="#cfe3ff" opacity="0.43"/>
<circle cx="1593.4" cy="778.7" r="0.80" fill="#ffffff" opacity="0.53"/>
<circle cx="1131.0" cy="889.2" r="0.69" fill="#cfe3ff" opacity="0.32"/>
<circle cx="741.9" cy="814.9" r="1.36" fill="#ffe9c9" opacity="0.80"/>
<circle cx="1736.2" cy="407.8" r="1.24" fill="#ffffff" opacity="0.99"/>
<circle cx="128.4" cy="107.9" r="1.37" fill="#cfe3ff" opacity="0.99"/>
<circle cx="1499.6" cy="1016.2" r="1.16" fill="#ffffff" opacity="0.34"/>
<circle cx="1563.9" cy="793.5" r="0.46" fill="#ffffff" opacity="0.84"/>
<circle cx="1714.3" cy="173.9" r="1.65" fill="#cfe3ff" opacity="0.78"/>
<circle cx="1207.1" cy="236.4" r="1.75" fill="#ffffff" opacity="0.62"/>
<circle cx="946.5" cy="894.3" r="1.62" fill="#ffe9c9" opacity="0.65"/>
<circle cx="1857.4" cy="334.2" r="0.45" fill="#ffe9c9" opacity="0.96"/>
<circle cx="355.1" cy="196.4" r="0.85" fill="#ffd9d9" opacity="0.87"/>
<circle cx="227.4" cy="131.0" r="0.93" fill="#ffe9c9" opacity="0.45"/>
<circle cx="1822.3" cy="597.5" r="0.32" fill="#ffffff" opacity="0.52"/>
<circle cx="1296.1" cy="798.2" r="1.30" fill="#cfe3ff" opacity="0.29"/>
<circle cx="946.5" cy="22.6" r="0.35" fill="#ffffff" opacity="0.78"/>
<circle cx="86.1" cy="371.7" r="0.34" fill="#ffffff" opacity="0.86"/>
<circle cx="1439.2" cy="780.6" r="1.14" fill="#cfe3ff" opacity="0.57"/>
<circle cx="876.0" cy="160.0" r="0.82" fill="#ffffff" opacity="0.41"/>
<circle cx="549.9" cy="698.8" r="0.36" fill="#ffffff" opacity="0.50"/>
<circle cx="1903.1" cy="79.4" r="1.07" fill="#ffffff" opacity="0.36"/>
<circle cx="1481.4" cy="72.7" r="0.95" fill="#ffffff" opacity="0.39"/>
<circle cx="1712.2" cy="18.2" r="1.63" fill="#ffd9d9" opacity="0.33"/>
<circle cx="1472.1" cy="957.5" r="0.97" fill="#cfe3ff" opacity="0.51"/>
<circle cx="1673.6" cy="96.3" r="1.24" fill="#ffffff" opacity="0.65"/>
<circle cx="413.1" cy="170.8" r="0.31" fill="#ffffff" opacity="0.64"/>
<circle cx="1268.9" cy="890.9" r="1.00" fill="#ffffff" opacity="0.39"/>
<circle cx="811.6" cy="568.1" r="0.59" fill="#ffffff" opacity="0.81"/>
<circle cx="1716.7" cy="141.8" r="1.52" fill="#ffffff" opacity="0.59"/>
<circle cx="436.4" cy="38.6" r="1.10" fill="#ffffff" opacity="0.93"/>
<circle cx="920.6" cy="414.1" r="0.55" fill="#ffe9c9" opacity="0.44"/>
<circle cx="573.5" cy="704.1" r="0.35" fill="#ffd9d9" opacity="0.30"/>
<circle cx="1629.5" cy="22.0" r="0.57" fill="#ffffff" opacity="0.61"/>
<circle cx="1081.0" cy="85.2" r="0.40" fill="#ffffff" opacity="0.47"/>
<circle cx="476.4" cy="308.0" r="1.48" fill="#cfe3ff" opacity="0.55"/>
<circle cx="836.7" cy="5.5" r="1.10" fill="#ffffff" opacity="0.79"/>
<circle cx="1303.6" cy="42.2" r="0.75" fill="#cfe3ff" opacity="0.88"/>
<circle cx="1856.6" cy="872.3" r="1.19" fill="#cfe3ff" opacity="0.39"/>
<circle cx="629.7" cy="70.5" r="1.77" fill="#cfe3ff" opacity="0.26"/>
<circle cx="1688.7" cy="761.9" r="1.27" fill="#ffffff" opacity="0.51"/>
<circle cx="1143.9" cy="179.4" r="0.58" fill="#ffd9d9" opacity="0.48"/>
<circle cx="1694.3" cy="793.4" r="1.39" fill="#ffffff" opacity="0.40"/>
<circle cx="904.2" cy="614.2" r="0.47" fill="#ffe9c9" opacity="0.55"/>
<circle cx="1758.1" cy="409.0" r="0.59" fill="#cfe3ff" opacity="0.90"/>
<circle cx="1119.8" cy="315.6" r="1.71" fill="#ffffff" opacity="0.52"/>
<circle cx="1167.5" cy="45.8" r="0.49" fill="#ffe9c9" opacity="0.38"/>
<circle cx="1350.0" cy="721.1" r="0.76" fill="#cfe3ff" opacity="0.42"/>
<circle cx="811.5" cy="381.9" r="0.33" fill="#cfe3ff" opacity="0.89"/>
<circle cx="232.3" cy="105.1" r="0.31" fill="#ffd9d9" opacity="0.37"/>
<circle cx="897.8" cy="313.0" r="0.44" fill="#ffffff" opacity="0.93"/>
<circle cx="953.3" cy="1039.8" r="0.58" fill="#cfe3ff" opacity="0.59"/>
<circle cx="808.4" cy="76.4" r="0.58" fill="#ffffff" opacity="0.93"/>
<circle cx="346.3" cy="663.9" r="1.28" fill="#ffffff" opacity="0.85"/>
<circle cx="1500.6" cy="622.2" r="0.49" fill="#ffffff" opacity="0.75"/>
<circle cx="627.8" cy="280.4" r="1.71" fill="#cfe3ff" opacity="0.48"/>
<circle cx="1146.9" cy="853.9" r="0.59" fill="#ffe9c9" opacity="0.81"/>
<circle cx="252.7" cy="224.0" r="0.63" fill="#ffd9d9" opacity="0.74"/>
<circle cx="981.5" cy="288.0" r="0.38" fill="#ffd9d9" opacity="0.46"/>
<circle cx="1713.6" cy="257.0" r="1.51" fill="#ffffff" opacity="0.89"/>
<circle cx="1305.0" cy="656.2" r="0.33" fill="#ffe9c9" opacity="0.70"/>
<circle cx="1412.1" cy="1053.3" r="0.32" fill="#ffffff" opacity="0.91"/>
<circle cx="1189.4" cy="408.1" r="0.34" fill="#cfe3ff" opacity="0.75"/>
<circle cx="98.6" cy="314.2" r="1.03" fill="#ffd9d9" opacity="0.52"/>
<circle cx="1603.5" cy="325.4" r="0.56" fill="#ffd9d9" opacity="0.71"/>
<circle cx="1233.1" cy="912.3" r="0.32" fill="#cfe3ff" opacity="0.95"/>
<circle cx="769.9" cy="499.9" r="0.30" fill="#ffffff" opacity="0.27"/>
<circle cx="1139.7" cy="872.3" r="1.71" fill="#ffffff" opacity="0.51"/>
<circle cx="716.2" cy="379.2" r="1.28" fill="#cfe3ff" opacity="0.48"/>
<circle cx="737.6" cy="188.1" r="0.79" fill="#ffffff" opacity="0.92"/>
<circle cx="504.7" cy="367.6" r="0.33" fill="#cfe3ff" opacity="0.88"/>
<circle cx="438.3" cy="416.6" r="1.24" fill="#ffffff" opacity="0.25"/>
<circle cx="603.2" cy="593.0" r="0.41" fill="#ffffff" opacity="0.44"/>
<circle cx="599.5" cy="419.5" r="0.34" fill="#cfe3ff" opacity="0.79"/>
<circle cx="1387.6" cy="584.9" r="1.68" fill="#ffe9c9" opacity="0.73"/>
<circle cx="978.0" cy="825.2" r="0.60" fill="#ffe9c9" opacity="0.95"/>
<circle cx="1797.5" cy="377.7" r="0.32" fill="#ffffff" opacity="0.28"/>
<circle cx="1351.9" cy="667.3" r="0.97" fill="#ffd9d9" opacity="0.29"/>
<circle cx="1140.2" cy="383.0" r="1.21" fill="#ffffff" opacity="0.79"/>
<circle cx="754.1" cy="407.3" r="0.40" fill="#ffe9c9" opacity="0.74"/>
<circle cx="1247.1" cy="1044.6" r="0.57" fill="#ffd9d9" opacity="0.77"/>
<circle cx="1811.4" cy="561.9" r="1.65" fill="#cfe3ff" opacity="0.98"/>
<circle cx="1919.6" cy="124.1" r="1.22" fill="#ffd9d9" opacity="0.32"/>
<circle cx="1487.5" cy="2.6" r="0.42" fill="#ffe9c9" opacity="0.82"/>
<circle cx="1423.1" cy="557.8" r="0.81" fill="#ffd9d9" opacity="0.30"/>
<circle cx="1834.5" cy="1024.1" r="0.71" fill="#cfe3ff" opacity="0.90"/>
<circle cx="1691.1" cy="443.1" r="0.40" fill="#cfe3ff" opacity="0.69"/>
<circle cx="39.3" cy="945.3" r="0.64" fill="#cfe3ff" opacity="0.28"/>
<circle cx="987.0" cy="982.7" r="0.48" fill="#ffffff" opacity="0.52"/>
<circle cx="1292.8" cy="587.5" r="0.54" fill="#ffe9c9" opacity="0.69"/>
<circle cx="1154.5" cy="153.6" r="1.52" fill="#cfe3ff" opacity="0.38"/>
<circle cx="1877.0" cy="531.3" r="0.68" fill="#cfe3ff" opacity="0.53"/>
<circle cx="1597.7" cy="551.2" r="0.50" fill="#cfe3ff" opacity="0.64"/>
<circle cx="1654.3" cy="559.7" r="0.46" fill="#ffd9d9" opacity="0.42"/>
<circle cx="1495.0" cy="84.4" r="0.43" fill="#ffe9c9" opacity="0.89"/>
<circle cx="1217.2" cy="105.6" r="0.31" fill="#ffffff" opacity="0.80"/>
<circle cx="304.0" cy="469.8" r="1.57" fill="#ffd9d9" opacity="0.25"/>
<circle cx="1618.1" cy="375.3" r="0.36" fill="#ffd9d9" opacity="0.61"/>
<circle cx="1068.4" cy="783.5" r="0.39" fill="#ffffff" opacity="0.92"/>
<circle cx="707.9" cy="168.4" r="0.54" fill="#ffffff" opacity="0.94"/>
<circle cx="1437.3" cy="806.8" r="1.79" fill="#cfe3ff" opacity="0.61"/>
<circle cx="365.3" cy="659.2" r="0.33" fill="#ffffff" opacity="0.44"/>
<circle cx="1519.9" cy="61.0" r="0.32" fill="#cfe3ff" opacity="0.86"/>
<circle cx="1225.7" cy="199.3" r="0.35" fill="#ffffff" opacity="0.80"/>
<circle cx="1636.9" cy="155.4" r="0.58" fill="#cfe3ff" opacity="0.74"/>
<circle cx="855.9" cy="263.6" r="0.42" fill="#ffd9d9" opacity="0.52"/>
<circle cx="164.2" cy="748.9" r="0.31" fill="#cfe3ff" opacity="0.84"/>
<circle cx="998.0" cy="848.1" r="0.59" fill="#ffffff" opacity="0.98"/>
<circle cx="1689.8" cy="235.1" r="0.55" fill="#cfe3ff" opacity="0.77"/>
<circle cx="1401.2" cy="98.8" r="0.44" fill="#ffe9c9" opacity="0.62"/>
<circle cx="174.9" cy="332.8" r="0.50" fill="#ffffff" opacity="0.66"/>
<circle cx="877.1" cy="543.5" r="0.75" fill="#cfe3ff" opacity="0.73"/>
<circle cx="1684.7" cy="257.5" r="1.23" fill="#ffffff" opacity="0.79"/>
<circle cx="1895.9" cy="782.4" r="0.48" fill="#ffffff" opacity="0.83"/>
<circle cx="498.9" cy="422.0" r="0.43" fill="#ffffff" opacity="0.35"/>
<circle cx="558.0" cy="852.0" r="1.39" fill="#ffe9c9" opacity="0.97"/>
<circle cx="449.6" cy="10.5" r="0.33" fill="#ffffff" opacity="0.62"/>
<circle cx="1414.3" cy="914.3" r="0.32" fill="#ffe9c9" opacity="0.66"/>
<circle cx="1168.1" cy="668.8" r="0.33" fill="#ffd9d9" opacity="0.62"/>
<circle cx="1196.6" cy="850.2" r="0.40" fill="#ffffff" opacity="0.57"/>
<circle cx="308.8" cy="238.6" r="0.30" fill="#ffffff" opacity="0.71"/>
<circle cx="211.9" cy="202.6" r="0.30" fill="#ffffff" opacity="0.68"/>
<circle cx="431.2" cy="310.0" r="0.51" fill="#ffd9d9" opacity="0.48"/>
<circle cx="1601.5" cy="329.4" r="0.52" fill="#ffd9d9" opacity="0.50"/>
<circle cx="296.0" cy="527.5" r="0.61" fill="#ffe9c9" opacity="0.32"/>
<circle cx="529.8" cy="348.7" r="1.66" fill="#ffe9c9" opacity="0.44"/>
<circle cx="1487.2" cy="1032.3" r="0.45" fill="#cfe3ff" opacity="0.33"/>
<circle cx="1695.8" cy="205.5" r="0.62" fill="#cfe3ff" opacity="0.26"/>
<circle cx="1412.2" cy="2.1" r="0.39" fill="#ffffff" opacity="0.81"/>
<circle cx="952.1" cy="132.9" r="0.68" fill="#cfe3ff" opacity="0.87"/>
<circle cx="540.7" cy="591.2" r="1.69" fill="#ffd9d9" opacity="0.78"/>
<circle cx="424.7" cy="882.1" r="0.31" fill="#cfe3ff" opacity="0.55"/>
<circle cx="953.6" cy="895.7" r="1.12" fill="#ffe9c9" opacity="0.66"/>
<circle cx="130.8" cy="623.5" r="0.31" fill="#cfe3ff" opacity="0.74"/>
<circle cx="757.8" cy="62.3" r="1.08" fill="#ffe9c9" opacity="0.49"/>
<circle cx="445.0" cy="39.6" r="1.36" fill="#ffd9d9" opacity="0.51"/>
<circle cx="479.5" cy="658.5" r="0.88" fill="#cfe3ff" opacity="0.26"/>
<circle cx="195.8" cy="323.4" r="0.44" fill="#ffffff" opacity="0.60"/>
<circle cx="124.5" cy="922.2" r="0.52" fill="#ffffff" opacity="0.37"/>
<circle cx="356.1" cy="686.4" r="0.35" fill="#ffd9d9" opacity="0.94"/>
<circle cx="630.4" cy="316.1" r="0.46" fill="#ffe9c9" opacity="0.50"/>
<circle cx="1241.8" cy="960.3" r="0.44" fill="#cfe3ff" opacity="0.60"/>
<circle cx="571.4" cy="396.1" r="1.36" fill="#ffffff" opacity="0.36"/>
<circle cx="1070.5" cy="559.7" r="0.32" fill="#ffd9d9" opacity="0.27"/>
<circle cx="19.4" cy="361.8" r="0.58" fill="#ffffff" opacity="0.41"/>
<circle cx="1187.7" cy="676.4" r="0.99" fill="#ffffff" opacity="0.40"/>
<circle cx="1368.1" cy="178.0" r="1.19" fill="#ffd9d9" opacity="0.54"/>
<circle cx="725.0" cy="989.0" r="0.30" fill="#ffffff" opacity="0.30"/>
<circle cx="603.8" cy="908.4" r="1.55" fill="#ffffff" opacity="0.58"/>
<circle cx="1877.9" cy="423.4" r="0.52" fill="#ffffff" opacity="0.69"/>
<circle cx="645.7" cy="324.5" r="0.30" fill="#cfe3ff" opacity="0.43"/>
<circle cx="1739.5" cy="487.6" r="0.61" fill="#ffffff" opacity="0.52"/>
<circle cx="1633.3" cy="451.6" r="0.34" fill="#ffffff" opacity="0.50"/>
<circle cx="195.6" cy="556.6" r="0.32" fill="#ffe9c9" opacity="0.95"/>
<circle cx="1591.0" cy="761.5" r="0.32" fill="#cfe3ff" opacity="0.39"/>
<circle cx="1853.1" cy="709.0" r="0.36" fill="#ffffff" opacity="0.82"/>
<circle cx="152.3" cy="565.2" r="1.00" fill="#cfe3ff" opacity="0.27"/>
<circle cx="830.1" cy="182.4" r="0.57" fill="#ffffff" opacity="0.97"/>
<circle cx="1524.1" cy="909.9" r="0.50" fill="#ffe9c9" opacity="0.27"/>
<circle cx="1142.8" cy="5.6" r="1.52" fill="#ffd9d9" opacity="0.64"/>
<circle cx="447.0" cy="967.0" r="0.31" fill="#ffffff" opacity="0.55"/>
<circle cx="226.8" cy="1059.6" r="0.40" fill="#ffffff" opacity="0.71"/>
<circle cx="429.6" cy="679.4" r="0.32" fill="#ffffff" opacity="0.50"/>
<circle cx="1177.2" cy="928.7" r="0.88" fill="#cfe3ff" opacity="0.87"/>
<circle cx="539.0" cy="126.8" r="0.51" fill="#ffffff" opacity="0.27"/>
<circle cx="118.8" cy="615.8" r="0.45" fill="#ffffff" opacity="0.57"/>
<circle cx="617.2" cy="942.3" r="0.72" fill="#cfe3ff" opacity="0.41"/>
<circle cx="1081.7" cy="1068.0" r="0.47" fill="#ffe9c9" opacity="0.91"/>
<circle cx="145.1" cy="379.4" r="0.84" fill="#cfe3ff" opacity="0.30"/>
<circle cx="460.0" cy="891.6" r="0.65" fill="#ffe9c9" opacity="0.91"/>
<circle cx="1865.6" cy="506.2" r="1.68" fill="#cfe3ff" opacity="0.77"/>
<circle cx="1652.4" cy="372.7" r="0.40" fill="#cfe3ff" opacity="0.59"/>
<circle cx="1142.1" cy="372.3" r="0.63" fill="#cfe3ff" opacity="0.58"/>
<circle cx="1004.6" cy="263.8" r="0.47" fill="#ffffff" opacity="0.73"/>
<circle cx="1919.2" cy="551.5" r="1.10" fill="#ffe9c9" opacity="0.74"/>
<circle cx="452.2" cy="668.2" r="0.31" fill="#ffffff" opacity="0.77"/>
<circle cx="1322.8" cy="287.5" r="0.34" fill="#ffffff" opacity="0.28"/>
<circle cx="1608.6" cy="729.2" r="0.32" fill="#cfe3ff" opacity="0.58"/>
<circle cx="1361.1" cy="759.9" r="0.44" fill="#ffffff" opacity="0.31"/>
<circle cx="1007.8" cy="471.8" r="1.27" fill="#ffe9c9" opacity="0.54"/>
<circle cx="1751.5" cy="868.3" r="0.31" fill="#cfe3ff" opacity="0.59"/>
<circle cx="794.3" cy="678.5" r="0.81" fill="#ffe9c9" opacity="0.47"/>
<circle cx="40.7" cy="837.2" r="0.51" fill="#ffffff" opacity="0.72"/>
<circle cx="389.8" cy="581.5" r="0.96" fill="#ffffff" opacity="0.49"/>
<circle cx="712.8" cy="399.4" r="1.70" fill="#cfe3ff" opacity="0.97"/>
<circle cx="1360.3" cy="685.8" r="0.46" fill="#cfe3ff" opacity="0.44"/>
<circle cx="1080.7" cy="115.1" r="0.30" fill="#ffd9d9" opacity="0.73"/>
<circle cx="750.0" cy="153.8" r="0.33" fill="#ffe9c9" opacity="0.67"/>
<circle cx="1063.0" cy="998.5" r="0.41" fill="#ffd9d9" opacity="0.76"/>
<circle cx="1325.6" cy="311.9" r="0.62" fill="#ffe9c9" opacity="0.72"/>
<circle cx="1612.4" cy="1056.8" r="0.31" fill="#ffe9c9" opacity="0.98"/>
<circle cx="276.7" cy="706.7" r="0.60" fill="#ffffff" opacity="0.75"/>
<circle cx="1455.0" cy="1006.9" r="1.48" fill="#ffffff" opacity="0.48"/>
<circle cx="945.6" cy="8.7" r="1.34" fill="#cfe3ff" opacity="0.90"/>
<circle cx="1307.3" cy="107.9" r="0.66" fill="#ffffff" opacity="0.67"/>
<circle cx="1590.6" cy="451.1" r="0.36" fill="#ffe9c9" opacity="0.88"/>
<circle cx="410.2" cy="419.6" r="0.77" fill="#ffe9c9" opacity="0.49"/>
<circle cx="1231.3" cy="476.9" r="0.30" fill="#ffffff" opacity="0.95"/>
<circle cx="1024.9" cy="673.1" r="0.82" fill="#ffd9d9" opacity="0.65"/>
<circle cx="1193.7" cy="488.9" r="0.97" fill="#ffe9c9" opacity="0.81"/>
<circle cx="277.9" cy="972.8" r="0.32" fill="#ffe9c9" opacity="0.49"/>
<circle cx="1791.3" cy="518.9" r="0.54" fill="#ffffff" opacity="0.55"/>
<circle cx="1704.7" cy="60.4" r="0.55" fill="#ffd9d9" opacity="0.46"/>
<circle cx="618.1" cy="228.8" r="0.39" fill="#ffffff" opacity="0.85"/>
<circle cx="754.6" cy="83.3" r="0.89" fill="#ffd9d9" opacity="0.68"/>
<circle cx="1795.1" cy="683.9" r="0.42" fill="#cfe3ff" opacity="0.40"/>
<circle cx="1910.9" cy="255.7" r="0.31" fill="#ffffff" opacity="0.99"/>
<circle cx="1705.0" cy="807.6" r="1.41" fill="#cfe3ff" opacity="0.91"/>
<circle cx="601.2" cy="598.0" r="1.38" fill="#ffffff" opacity="0.96"/>
<circle cx="335.8" cy="948.7" r="1.37" fill="#ffffff" opacity="0.74"/>
<circle cx="496.3" cy="820.1" r="0.35" fill="#ffd9d9" opacity="0.34"/>
<circle cx="699.5" cy="41.3" r="0.74" fill="#ffffff" opacity="0.79"/>
<circle cx="475.4" cy="447.6" r="0.65" fill="#ffffff" opacity="0.32"/>
<circle cx="1791.7" cy="299.7" r="0.32" fill="#cfe3ff" opacity="0.76"/>
<circle cx="260.9" cy="185.2" r="0.71" fill="#ffffff" opacity="0.49"/>
<circle cx="1440.4" cy="362.4" r="0.70" fill="#cfe3ff" opacity="0.63"/>
<circle cx="369.2" cy="1025.6" r="0.30" fill="#cfe3ff" opacity="0.80"/>
<circle cx="563.7" cy="916.5" r="0.95" fill="#cfe3ff" opacity="0.92"/>
<circle cx="1306.7" cy="267.9" r="1.48" fill="#ffe9c9" opacity="0.98"/>
<circle cx="1287.7" cy="478.1" r="0.54" fill="#ffffff" opacity="0.42"/>
<circle cx="1549.8" cy="62.3" r="0.33" fill="#ffe9c9" opacity="0.51"/>
<circle cx="1662.1" cy="977.8" r="0.74" fill="#cfe3ff" opacity="0.56"/>
<circle cx="46.2" cy="782.6" r="0.76" fill="#cfe3ff" opacity="0.87"/>
<circle cx="143.9" cy="158.6" r="1.10" fill="#ffffff" opacity="0.38"/>
<circle cx="1153.1" cy="768.2" r="0.32" fill="#ffffff" opacity="0.89"/>
<circle cx="1490.2" cy="362.6" r="0.99" fill="#cfe3ff" opacity="0.35"/>
<circle cx="16.2" cy="75.1" r="0.38" fill="#ffffff" opacity="0.33"/>
<circle cx="1114.5" cy="429.3" r="0.49" fill="#cfe3ff" opacity="0.85"/>
<circle cx="46.5" cy="965.9" r="0.51" fill="#ffffff" opacity="0.74"/>
<circle cx="314.1" cy="785.5" r="0.50" fill="#ffd9d9" opacity="0.48"/>
<circle cx="999.1" cy="954.8" r="0.30" fill="#cfe3ff" opacity="0.38"/>
<circle cx="266.1" cy="57.7" r="0.35" fill="#ffffff" opacity="0.41"/>
<circle cx="1905.7" cy="365.9" r="0.73" fill="#ffe9c9" opacity="0.44"/>
<circle cx="889.7" cy="132.4" r="0.95" fill="#cfe3ff" opacity="0.85"/>
<circle cx="1571.9" cy="396.9" r="0.30" fill="#ffffff" opacity="0.93"/>
<circle cx="521.0" cy="50.3" r="0.47" fill="#cfe3ff" opacity="0.58"/>
<circle cx="832.3" cy="50.2" r="1.45" fill="#ffe9c9" opacity="0.70"/>
<circle cx="946.2" cy="313.1" r="0.40" fill="#ffffff" opacity="0.96"/>
<circle cx="245.0" cy="27.1" r="1.19" fill="#cfe3ff" opacity="0.74"/>
<circle cx="100.7" cy="271.0" r="1.32" fill="#cfe3ff" opacity="0.36"/>
<circle cx="486.2" cy="800.7" r="0.58" fill="#cfe3ff" opacity="0.62"/>
<circle cx="322.7" cy="725.8" r="0.37" fill="#ffffff" opacity="0.95"/>
<circle cx="1029.4" cy="555.3" r="1.25" fill="#cfe3ff" opacity="0.29"/>
<circle cx="1703.2" cy="534.6" r="0.66" fill="#cfe3ff" opacity="0.42"/>
<circle cx="1756.1" cy="122.1" r="0.46" fill="#ffffff" opacity="0.38"/>
<circle cx="952.9" cy="494.4" r="1.20" fill="#cfe3ff" opacity="0.50"/>
<circle cx="45.6" cy="128.7" r="1.53" fill="#ffe9c9" opacity="0.67"/>
<circle cx="1030.9" cy="411.8" r="0.52" fill="#ffd9d9" opacity="0.96"/>
<circle cx="791.7" cy="671.5" r="1.17" fill="#ffffff" opacity="0.40"/>
<circle cx="1205.1" cy="139.5" r="1.03" fill="#cfe3ff" opacity="0.38"/>
<circle cx="1167.0" cy="1009.8" r="0.31" fill="#cfe3ff" opacity="0.58"/>
<circle cx="1848.1" cy="892.4" r="1.23" fill="#ffffff" opacity="0.53"/>
<circle cx="1510.7" cy="468.5" r="0.30" fill="#ffffff" opacity="0.61"/>
<circle cx="495.1" cy="249.4" r="0.39" fill="#ffffff" opacity="0.44"/>
<circle cx="1547.6" cy="239.5" r="1.54" fill="#ffffff" opacity="0.45"/>
<circle cx="1581.5" cy="229.4" r="0.94" fill="#cfe3ff" opacity="0.90"/>
<circle cx="1229.5" cy="719.1" r="0.30" fill="#cfe3ff" opacity="0.60"/>
<circle cx="869.3" cy="146.5" r="0.39" fill="#cfe3ff" opacity="0.53"/>
<circle cx="1280.5" cy="662.9" r="0.38" fill="#cfe3ff" opacity="0.52"/>
<circle cx="14.8" cy="729.5" r="0.95" fill="#ffffff" opacity="0.88"/>
<circle cx="1915.6" cy="986.5" r="0.39" fill="#ffffff" opacity="0.86"/>
<circle cx="585.8" cy="861.8" r="0.47" fill="#ffffff" opacity="0.50"/>
<circle cx="1246.3" cy="896.0" r="1.64" fill="#ffe9c9" opacity="0.52"/>
<circle cx="496.1" cy="85.1" r="1.08" fill="#ffffff" opacity="0.88"/>
<circle cx="1827.9" cy="35.8" r="1.46" fill="#cfe3ff" opacity="0.40"/>
<circle cx="284.5" cy="1030.7" r="1.22" fill="#cfe3ff" opacity="0.85"/>
<circle cx="1672.9" cy="906.2" r="0.30" fill="#ffffff" opacity="0.46"/>
<circle cx="208.0" cy="585.5" r="0.59" fill="#ffffff" opacity="0.55"/>
<circle cx="704.3" cy="208.2" r="0.30" fill="#ffe9c9" opacity="0.50"/>
<circle cx="788.6" cy="53.8" r="1.29" fill="#cfe3ff" opacity="0.74"/>
<circle cx="1257.9" cy="811.9" r="0.89" fill="#ffd9d9" opacity="0.37"/>
<circle cx="1046.0" cy="365.0" r="0.30" fill="#ffd9d9" opacity="0.32"/>
<circle cx="1153.7" cy="1012.0" r="0.39" fill="#ffffff" opacity="0.52"/>
<circle cx="1271.4" cy="987.1" r="0.53" fill="#ffffff" opacity="0.43"/>
<circle cx="24.2" cy="477.4" r="0.36" fill="#cfe3ff" opacity="0.91"/>
<circle cx="376.7" cy="610.1" r="0.41" fill="#ffffff" opacity="0.97"/>
<circle cx="889.0" cy="960.0" r="0.64" fill="#ffffff" opacity="0.75"/>
<circle cx="190.8" cy="713.5" r="0.53" fill="#ffd9d9" opacity="0.41"/>
<circle cx="1089.6" cy="949.6" r="0.44" fill="#ffe9c9" opacity="0.55"/>
<circle cx="427.8" cy="933.4" r="1.14" fill="#ffffff" opacity="0.42"/>
<circle cx="844.8" cy="697.6" r="0.74" fill="#cfe3ff" opacity="0.58"/>
<circle cx="1200.5" cy="1007.6" r="0.96" fill="#cfe3ff" opacity="0.41"/>
<circle cx="1162.9" cy="588.1" r="0.69" fill="#ffe9c9" opacity="0.65"/>
<circle cx="1555.8" cy="746.7" r="0.93" fill="#ffffff" opacity="0.98"/>
<circle cx="1553.4" cy="44.1" r="0.65" fill="#ffffff" opacity="0.28"/>
<circle cx="1092.6" cy="420.3" r="1.02" fill="#cfe3ff" opacity="0.55"/>
<circle cx="1837.4" cy="1024.0" r="0.84" fill="#ffffff" opacity="0.74"/>
<circle cx="1158.4" cy="830.6" r="0.94" fill="#ffe9c9" opacity="0.49"/>
<circle cx="123.3" cy="402.5" r="0.31" fill="#ffffff" opacity="0.57"/>
<circle cx="11.8" cy="665.1" r="0.30" fill="#cfe3ff" opacity="0.94"/>
<circle cx="160.4" cy="1047.9" r="0.67" fill="#ffffff" opacity="0.84"/>
<circle cx="1588.0" cy="842.2" r="0.32" fill="#ffffff" opacity="0.51"/>
<circle cx="205.8" cy="299.7" r="0.37" fill="#ffd9d9" opacity="0.26"/>
<circle cx="449.4" cy="1006.9" r="0.99" fill="#cfe3ff" opacity="0.69"/>
<circle cx="190.3" cy="338.5" r="0.69" fill="#ffffff" opacity="0.42"/>
<circle cx="1738.8" cy="419.0" r="0.30" fill="#ffffff" opacity="0.49"/>
<circle cx="720.3" cy="813.2" r="0.30" fill="#ffffff" opacity="0.28"/>
<circle cx="1779.7" cy="72.7" r="0.43" fill="#ffffff" opacity="0.99"/>
<circle cx="667.1" cy="836.6" r="1.35" fill="#ffd9d9" opacity="0.91"/>
<circle cx="1829.5" cy="767.3" r="0.97" fill="#ffffff" opacity="0.90"/>
<circle cx="409.1" cy="189.6" r="0.46" fill="#ffd9d9" opacity="0.36"/>
<circle cx="169.3" cy="470.3" r="0.95" fill="#ffffff" opacity="0.87"/>
<circle cx="1715.5" cy="381.3" r="0.31" fill="#ffffff" opacity="0.54"/>
<circle cx="231.5" cy="446.7" r="0.95" fill="#ffffff" opacity="0.90"/>
<circle cx="1779.8" cy="776.5" r="1.38" fill="#cfe3ff" opacity="0.59"/>
<circle cx="203.1" cy="972.6" r="0.57" fill="#ffe9c9" opacity="0.46"/>
<circle cx="1659.8" cy="285.3" r="1.66" fill="#cfe3ff" opacity="0.44"/>
<circle cx="449.6" cy="1019.1" r="0.55" fill="#ffe9c9" opacity="0.38"/>
<circle cx="1005.7" cy="984.5" r="0.31" fill="#ffd9d9" opacity="0.58"/>
<circle cx="454.8" cy="512.3" r="0.30" fill="#ffd9d9" opacity="0.44"/>
<circle cx="1246.7" cy="943.4" r="1.33" fill="#ffd9d9" opacity="0.90"/>
<circle cx="1404.0" cy="660.0" r="0.80" fill="#cfe3ff" opacity="0.96"/>
<circle cx="1125.3" cy="43.6" r="1.19" fill="#ffffff" opacity="0.71"/>
<circle cx="1889.7" cy="560.9" r="0.30" fill="#cfe3ff" opacity="0.32"/>
<circle cx="778.5" cy="527.2" r="0.31" fill="#ffd9d9" opacity="0.52"/>
<circle cx="583.7" cy="187.0" r="0.90" fill="#ffffff" opacity="0.95"/>
<circle cx="47.6" cy="565.4" r="0.82" fill="#cfe3ff" opacity="0.78"/>
<circle cx="591.0" cy="625.8" r="1.51" fill="#ffffff" opacity="0.62"/>
<circle cx="1053.3" cy="878.4" r="0.61" fill="#cfe3ff" opacity="0.70"/>
<circle cx="95.9" cy="150.5" r="0.58" fill="#ffffff" opacity="0.96"/>
<circle cx="775.2" cy="145.2" r="0.32" fill="#cfe3ff" opacity="0.34"/>
<circle cx="611.7" cy="611.0" r="0.30" fill="#cfe3ff" opacity="0.73"/>
<circle cx="5.7" cy="804.1" r="0.45" fill="#ffffff" opacity="0.47"/>
<circle cx="1240.2" cy="44.9" r="0.78" fill="#ffe9c9" opacity="0.42"/>
<circle cx="1417.0" cy="27.8" r="0.30" fill="#ffffff" opacity="0.80"/>
<circle cx="274.1" cy="318.3" r="1.64" fill="#cfe3ff" opacity="0.93"/>
<circle cx="1531.9" cy="825.2" r="0.52" fill="#ffffff" opacity="0.34"/>
<circle cx="34.1" cy="800.9" r="0.52" fill="#cfe3ff" opacity="0.93"/>
<circle cx="1038.6" cy="592.6" r="0.32" fill="#ffffff" opacity="0.57"/>
<circle cx="519.6" cy="55.4" r="0.78" fill="#cfe3ff" opacity="0.92"/>
<circle cx="564.6" cy="231.2" r="0.53" fill="#ffd9d9" opacity="0.90"/>
<circle cx="1695.0" cy="963.5" r="0.32" fill="#cfe3ff" opacity="0.48"/>
<circle cx="622.7" cy="287.5" r="0.70" fill="#ffd9d9" opacity="0.34"/>
<circle cx="1729.6" cy="610.1" r="0.85" fill="#ffffff" opacity="0.53"/>
<circle cx="1810.8" cy="516.6" r="0.64" fill="#ffffff" opacity="0.99"/>
<circle cx="767.7" cy="678.1" r="1.33" fill="#ffffff" opacity="0.36"/>
<circle cx="1525.1" cy="614.1" r="0.37" fill="#ffffff" opacity="0.68"/>
<circle cx="580.4" cy="19.3" r="0.31" fill="#ffe9c9" opacity="0.68"/>
<circle cx="1410.2" cy="105.7" r="0.63" fill="#ffd9d9" opacity="0.67"/>
<circle cx="171.8" cy="382.9" r="0.34" fill="#ffd9d9" opacity="0.29"/>
<circle cx="488.8" cy="627.2" r="0.34" fill="#ffffff" opacity="0.94"/>
<circle cx="1898.7" cy="13.7" r="1.16" fill="#ffd9d9" opacity="0.92"/>
<circle cx="72.0" cy="1000.5" r="0.37" fill="#ffffff" opacity="0.69"/>
<circle cx="397.0" cy="992.0" r="0.79" fill="#cfe3ff" opacity="0.77"/>
<circle cx="1164.0" cy="419.2" r="0.44" fill="#cfe3ff" opacity="0.62"/>
<circle cx="285.6" cy="1041.5" r="0.69" fill="#ffffff" opacity="0.52"/>
<circle cx="1176.9" cy="431.4" r="0.30" fill="#ffffff" opacity="0.52"/>
<circle cx="1064.7" cy="634.5" r="1.61" fill="#ffffff" opacity="0.72"/>
<circle cx="655.0" cy="257.4" r="0.48" fill="#cfe3ff" opacity="0.49"/>
<circle cx="1635.6" cy="718.4" r="0.50" fill="#ffe9c9" opacity="0.32"/>
<circle cx="1641.3" cy="727.5" r="0.80" fill="#ffe9c9" opacity="0.60"/>
<circle cx="1018.7" cy="513.3" r="0.39" fill="#ffffff" opacity="0.68"/>
<circle cx="853.4" cy="906.9" r="0.41" fill="#cfe3ff" opacity="0.27"/>
<circle cx="661.6" cy="297.3" r="0.31" fill="#cfe3ff" opacity="0.71"/>
<circle cx="213.2" cy="901.9" r="1.17" fill="#ffffff" opacity="0.38"/>
<circle cx="1798.1" cy="755.4" r="0.69" fill="#ffffff" opacity="0.66"/>
<circle cx="1751.6" cy="964.6" r="0.51" fill="#ffd9d9" opacity="0.97"/>
<circle cx="167.2" cy="346.4" r="0.35" fill="#cfe3ff" opacity="0.89"/>
<circle cx="478.7" cy="706.2" r="1.03" fill="#ffffff" opacity="0.60"/>
<circle cx="704.2" cy="65.1" r="0.98" fill="#cfe3ff" opacity="0.44"/>
<circle cx="418.9" cy="468.3" r="1.45" fill="#ffffff" opacity="0.97"/>
<circle cx="1698.1" cy="858.1" r="0.30" fill="#cfe3ff" opacity="0.34"/>
<circle cx="1881.3" cy="848.9" r="0.30" fill="#ffffff" opacity="0.28"/>
<circle cx="1836.6" cy="45.6" r="0.49" fill="#cfe3ff" opacity="0.43"/>
<circle cx="996.0" cy="523.2" r="1.71" fill="#cfe3ff" opacity="0.86"/>
<circle cx="614.6" cy="1016.8" r="1.23" fill="#cfe3ff" opacity="0.28"/>
<circle cx="376.9" cy="480.6" r="1.65" fill="#ffe9c9" opacity="0.45"/>
<circle cx="1661.0" cy="644.7" r="0.34" fill="#ffd9d9" opacity="0.28"/>
<circle cx="1248.5" cy="1045.2" r="1.54" fill="#ffffff" opacity="0.32"/>
<circle cx="1237.9" cy="205.3" r="0.59" fill="#ffd9d9" opacity="0.30"/>
<circle cx="1879.0" cy="499.2" r="0.47" fill="#cfe3ff" opacity="0.97"/>
<circle cx="1644.1" cy="718.1" r="0.31" fill="#cfe3ff" opacity="0.73"/>
<circle cx="1191.5" cy="54.8" r="0.38" fill="#cfe3ff" opacity="0.35"/>
<circle cx="1430.2" cy="660.6" r="1.44" fill="#cfe3ff" opacity="0.42"/>
<circle cx="564.8" cy="1020.2" r="0.58" fill="#cfe3ff" opacity="0.98"/>
<circle cx="1160.6" cy="443.8" r="1.36" fill="#ffffff" opacity="0.38"/>
<circle cx="1473.5" cy="212.5" r="1.66" fill="#ffffff" opacity="0.37"/>
<circle cx="734.9" cy="299.0" r="0.96" fill="#ffffff" opacity="0.84"/>
<circle cx="1184.7" cy="502.4" r="0.34" fill="#ffe9c9" opacity="0.34"/>
<circle cx="1822.1" cy="400.1" r="0.98" fill="#ffd9d9" opacity="0.31"/>
<circle cx="1174.5" cy="1047.1" r="0.72" fill="#ffffff" opacity="0.63"/>
<circle cx="36.5" cy="284.8" r="0.53" fill="#cfe3ff" opacity="0.64"/>
<circle cx="1470.3" cy="730.9" r="0.97" fill="#ffffff" opacity="0.89"/>
<circle cx="638.6" cy="41.8" r="0.78" fill="#ffffff" opacity="0.49"/>
<circle cx="1816.3" cy="61.1" r="0.41" fill="#ffe9c9" opacity="0.49"/>
<circle cx="1687.5" cy="686.8" r="0.39" fill="#ffffff" opacity="0.66"/>
<circle cx="225.7" cy="703.0" r="0.92" fill="#cfe3ff" opacity="0.69"/>
<circle cx="1460.0" cy="685.7" r="1.57" fill="#cfe3ff" opacity="0.78"/>
<circle cx="102.3" cy="707.8" r="0.99" fill="#ffd9d9" opacity="0.76"/>
<circle cx="49.0" cy="228.4" r="1.50" fill="#ffd9d9" opacity="0.87"/>
<circle cx="1419.7" cy="533.6" r="0.66" fill="#ffffff" opacity="0.89"/>
<circle cx="286.4" cy="867.7" r="0.55" fill="#cfe3ff" opacity="0.87"/>
<circle cx="1803.9" cy="635.9" r="0.53" fill="#ffffff" opacity="1.00"/>
<circle cx="1534.2" cy="813.5" r="0.95" fill="#ffffff" opacity="0.35"/>
<circle cx="1823.7" cy="189.1" r="1.13" fill="#cfe3ff" opacity="0.37"/>
<circle cx="844.5" cy="485.3" r="0.38" fill="#ffffff" opacity="0.56"/>
<circle cx="867.8" cy="1046.1" r="0.63" fill="#ffffff" opacity="0.43"/>
<circle cx="1274.1" cy="385.7" r="0.30" fill="#ffffff" opacity="0.35"/>
<circle cx="628.1" cy="785.3" r="0.40" fill="#cfe3ff" opacity="0.42"/>
<circle cx="1315.9" cy="96.0" r="1.37" fill="#ffffff" opacity="0.42"/>
<circle cx="1520.2" cy="438.0" r="0.68" fill="#ffffff" opacity="0.50"/>
<circle cx="641.8" cy="1066.7" r="0.34" fill="#ffd9d9" opacity="0.92"/>
<circle cx="1367.0" cy="196.1" r="1.08" fill="#cfe3ff" opacity="0.26"/>
<circle cx="570.2" cy="808.8" r="0.88" fill="#cfe3ff" opacity="0.25"/>
<circle cx="568.4" cy="208.6" r="0.44" fill="#ffffff" opacity="0.69"/>
<circle cx="1781.8" cy="792.4" r="0.30" fill="#ffffff" opacity="0.45"/>
<circle cx="1580.6" cy="611.3" r="1.03" fill="#ffe9c9" opacity="0.30"/>
<circle cx="34.3" cy="460.8" r="0.75" fill="#ffd9d9" opacity="0.45"/>
<circle cx="1909.8" cy="327.9" r="0.41" fill="#ffffff" opacity="0.36"/>
<circle cx="1225.3" cy="958.6" r="0.42" fill="#cfe3ff" opacity="0.99"/>
<circle cx="1521.5" cy="960.7" r="1.35" fill="#ffd9d9" opacity="0.45"/>
<circle cx="1800.3" cy="643.8" r="0.30" fill="#ffe9c9" opacity="0.33"/>
<circle cx="1093.3" cy="75.2" r="0.48" fill="#cfe3ff" opacity="0.84"/>
<circle cx="1779.6" cy="308.1" r="1.01" fill="#ffffff" opacity="0.79"/>
<circle cx="797.4" cy="148.4" r="0.48" fill="#cfe3ff" opacity="0.39"/>
<circle cx="928.0" cy="291.2" r="0.32" fill="#ffe9c9" opacity="0.58"/>
<circle cx="163.0" cy="852.0" r="0.30" fill="#ffffff" opacity="0.37"/>
<circle cx="884.3" cy="389.5" r="0.44" fill="#ffffff" opacity="0.52"/>
<circle cx="1757.7" cy="995.4" r="1.69" fill="#ffffff" opacity="0.77"/>
<circle cx="1519.7" cy="990.9" r="1.45" fill="#cfe3ff" opacity="0.57"/>
<circle cx="1343.3" cy="215.1" r="0.30" fill="#ffffff" opacity="0.86"/>
<circle cx="698.0" cy="856.5" r="0.69" fill="#ffffff" opacity="0.65"/>
<circle cx="1090.3" cy="986.0" r="0.56" fill="#ffd9d9" opacity="0.81"/>
<circle cx="164.2" cy="630.4" r="0.31" fill="#ffffff" opacity="0.44"/>
<circle cx="734.3" cy="703.1" r="1.31" fill="#ffd9d9" opacity="0.65"/>
<circle cx="1572.9" cy="762.9" r="0.62" fill="#ffe9c9" opacity="0.75"/>
<circle cx="1697.2" cy="1078.2" r="1.66" fill="#ffffff" opacity="0.54"/>
<circle cx="1385.5" cy="564.3" r="0.35" fill="#cfe3ff" opacity="0.50"/>
<circle cx="1570.7" cy="258.2" r="1.14" fill="#ffffff" opacity="0.39"/>
<circle cx="1851.9" cy="27.8" r="0.64" fill="#cfe3ff" opacity="0.49"/>
<circle cx="889.9" cy="94.1" r="1.14" fill="#ffffff" opacity="0.56"/>
<circle cx="1460.1" cy="921.3" r="0.75" fill="#ffffff" opacity="0.80"/>
<circle cx="1798.4" cy="605.5" r="1.68" fill="#ffe9c9" opacity="0.40"/>
<circle cx="1708.1" cy="876.5" r="0.34" fill="#ffffff" opacity="0.97"/>
<circle cx="162.2" cy="470.4" r="0.54" fill="#ffe9c9" opacity="0.53"/>
<circle cx="1108.5" cy="559.4" r="1.62" fill="#ffffff" opacity="0.91"/>
<circle cx="1287.3" cy="186.8" r="0.34" fill="#ffffff" opacity="0.42"/>
<circle cx="1307.1" cy="417.5" r="0.56" fill="#ffffff" opacity="0.27"/>
<circle cx="1222.1" cy="160.6" r="0.41" fill="#ffffff" opacity="0.79"/>
<circle cx="1007.2" cy="90.3" r="0.39" fill="#ffffff" opacity="0.38"/>
<circle cx="876.9" cy="763.5" r="0.43" fill="#cfe3ff" opacity="0.69"/>
<circle cx="1862.7" cy="1072.5" r="0.56" fill="#ffe9c9" opacity="0.45"/>
<circle cx="1831.9" cy="239.9" r="0.99" fill="#cfe3ff" opacity="0.78"/>
<circle cx="120.4" cy="977.0" r="1.69" fill="#ffffff" opacity="0.83"/>
<circle cx="1251.2" cy="122.1" r="0.38" fill="#ffffff" opacity="0.36"/>
<circle cx="1607.5" cy="599.9" r="0.31" fill="#ffffff" opacity="0.57"/>
<circle cx="1529.8" cy="707.0" r="1.03" fill="#ffffff" opacity="0.86"/>
<circle cx="1714.8" cy="651.0" r="0.37" fill="#ffd9d9" opacity="0.95"/>
<circle cx="223.8" cy="767.9" r="0.89" fill="#ffffff" opacity="0.49"/>
<circle cx="104.0" cy="922.8" r="0.39" fill="#ffe9c9" opacity="0.25"/>
<circle cx="487.7" cy="359.0" r="1.20" fill="#ffffff" opacity="0.38"/>
<circle cx="397.0" cy="748.8" r="0.56" fill="#cfe3ff" opacity="0.75"/>
<circle cx="799.3" cy="487.7" r="0.70" fill="#cfe3ff" opacity="0.84"/>
<circle cx="1760.0" cy="5.5" r="0.66" fill="#ffffff" opacity="0.74"/>
<circle cx="1462.8" cy="789.0" r="0.73" fill="#ffffff" opacity="0.38"/>
<circle cx="41.0" cy="489.4" r="0.95" fill="#ffe9c9" opacity="0.39"/>
<circle cx="1720.9" cy="235.9" r="1.59" fill="#cfe3ff" opacity="0.31"/>
<circle cx="1599.9" cy="908.1" r="1.58" fill="#ffffff" opacity="0.65"/>
<circle cx="1040.8" cy="79.4" r="0.36" fill="#ffffff" opacity="0.38"/>
<circle cx="1765.7" cy="700.2" r="0.89" fill="#cfe3ff" opacity="0.60"/>
<circle cx="1332.4" cy="492.6" r="0.31" fill="#ffe9c9" opacity="0.96"/>
<circle cx="815.2" cy="453.5" r="0.43" fill="#ffe9c9" opacity="0.39"/>
<circle cx="373.8" cy="840.8" r="0.97" fill="#ffffff" opacity="0.25"/>
<circle cx="529.1" cy="180.1" r="0.32" fill="#ffffff" opacity="0.58"/>
<circle cx="365.1" cy="148.2" r="0.90" fill="#cfe3ff" opacity="0.78"/>
<circle cx="739.2" cy="1002.9" r="0.62" fill="#ffffff" opacity="0.48"/>
<circle cx="494.0" cy="1072.6" r="0.30" fill="#ffffff" opacity="0.87"/>
<circle cx="151.7" cy="109.1" r="0.30" fill="#ffffff" opacity="0.49"/>
<circle cx="306.0" cy="500.3" r="0.49" fill="#ffe9c9" opacity="0.71"/>
<circle cx="134.0" cy="243.3" r="0.89" fill="#ffffff" opacity="0.29"/>
<circle cx="1604.3" cy="303.8" r="0.31" fill="#ffffff" opacity="0.94"/>
<circle cx="1449.7" cy="682.3" r="0.41" fill="#ffffff" opacity="0.69"/>
<circle cx="1844.9" cy="349.0" r="0.30" fill="#ffd9d9" opacity="0.69"/>
<circle cx="823.3" cy="361.0" r="0.66" fill="#ffe9c9" opacity="0.92"/>
<circle cx="1634.7" cy="672.1" r="1.40" fill="#cfe3ff" opacity="0.41"/>
<circle cx="1497.0" cy="1074.6" r="0.60" fill="#ffffff" opacity="0.80"/>
<circle cx="80.0" cy="814.1" r="0.74" fill="#ffd9d9" opacity="0.29"/>
<circle cx="460.0" cy="559.4" r="0.89" fill="#cfe3ff" opacity="0.49"/>
<circle cx="1376.2" cy="1004.0" r="0.81" fill="#cfe3ff" opacity="0.29"/>
<circle cx="1004.7" cy="833.1" r="1.76" fill="#ffffff" opacity="0.28"/>
<circle cx="1214.7" cy="688.6" r="0.37" fill="#ffffff" opacity="0.64"/>
<circle cx="1105.0" cy="644.4" r="0.70" fill="#cfe3ff" opacity="0.43"/>
<circle cx="1610.5" cy="259.9" r="0.34" fill="#ffd9d9" opacity="0.82"/>
<circle cx="1003.2" cy="85.9" r="1.61" fill="#ffffff" opacity="0.49"/>
<circle cx="195.0" cy="254.5" r="0.91" fill="#ffffff" opacity="0.60"/>
<circle cx="33.2" cy="471.6" r="1.24" fill="#ffe9c9" opacity="0.64"/>
<circle cx="1157.9" cy="823.9" r="0.33" fill="#ffd9d9" opacity="1.00"/>
<circle cx="792.8" cy="845.3" r="0.60" fill="#ffffff" opacity="0.25"/>
<circle cx="972.4" cy="735.5" r="0.30" fill="#cfe3ff" opacity="0.46"/>
<circle cx="814.8" cy="571.0" r="0.77" fill="#ffffff" opacity="0.61"/>
<circle cx="96.9" cy="1006.8" r="0.35" fill="#cfe3ff" opacity="0.56"/>
<circle cx="461.9" cy="1042.7" r="0.31" fill="#ffd9d9" opacity="0.49"/>
<circle cx="1114.8" cy="352.9" r="0.42" fill="#ffe9c9" opacity="0.94"/>
<circle cx="1438.2" cy="375.1" r="0.32" fill="#cfe3ff" opacity="0.97"/>
<circle cx="1021.7" cy="862.0" r="0.48" fill="#ffe9c9" opacity="0.35"/>
<circle cx="1244.4" cy="643.9" r="1.21" fill="#ffffff" opacity="0.66"/>
<circle cx="1592.0" cy="231.7" r="1.43" fill="#ffffff" opacity="0.92"/>
<circle cx="262.5" cy="46.4" r="0.33" fill="#cfe3ff" opacity="0.32"/>
<circle cx="65.6" cy="58.3" r="1.06" fill="#ffffff" opacity="0.39"/>
<circle cx="293.2" cy="677.7" r="0.30" fill="#cfe3ff" opacity="0.48"/>
<circle cx="809.6" cy="54.7" r="0.71" fill="#cfe3ff" opacity="0.48"/>
<circle cx="1422.5" cy="655.4" r="1.49" fill="#cfe3ff" opacity="0.71"/>
<circle cx="1505.4" cy="818.5" r="0.31" fill="#ffffff" opacity="0.57"/>
<circle cx="887.9" cy="443.5" r="0.31" fill="#ffffff" opacity="0.85"/>
<circle cx="1236.6" cy="65.3" r="1.18" fill="#ffe9c9" opacity="0.66"/>
<circle cx="1375.6" cy="180.4" r="0.30" fill="#ffffff" opacity="0.60"/>
<circle cx="1560.3" cy="683.7" r="0.62" fill="#cfe3ff" opacity="0.83"/>
<circle cx="974.2" cy="595.6" r="1.14" fill="#ffd9d9" opacity="0.65"/>
<circle cx="1576.5" cy="103.9" r="0.71" fill="#ffffff" opacity="0.71"/>
<circle cx="995.6" cy="443.2" r="0.90" fill="#ffd9d9" opacity="0.88"/>
<circle cx="1273.4" cy="610.7" r="0.32" fill="#ffffff" opacity="0.27"/>
<circle cx="1763.5" cy="949.4" r="0.32" fill="#ffe9c9" opacity="0.79"/>
<circle cx="663.2" cy="308.5" r="0.30" fill="#ffffff" opacity="0.74"/>
<circle cx="1160.3" cy="107.1" r="1.77" fill="#ffffff" opacity="0.74"/>
<circle cx="1520.1" cy="333.3" r="0.60" fill="#ffffff" opacity="0.31"/>
<circle cx="152.8" cy="79.0" r="0.41" fill="#cfe3ff" opacity="0.37"/>
<circle cx="171.4" cy="307.1" r="1.75" fill="#ffffff" opacity="0.73"/>
<circle cx="587.2" cy="951.8" r="0.69" fill="#ffe9c9" opacity="0.38"/>
<circle cx="1507.0" cy="949.2" r="0.32" fill="#ffffff" opacity="0.81"/>
<circle cx="592.0" cy="571.8" r="0.35" fill="#cfe3ff" opacity="0.60"/>
<circle cx="566.2" cy="911.4" r="0.88" fill="#ffffff" opacity="0.88"/>
<circle cx="942.5" cy="17.4" r="1.74" fill="#ffd9d9" opacity="0.90"/>
<circle cx="1084.9" cy="434.0" r="0.63" fill="#ffffff" opacity="0.27"/>
<circle cx="115.0" cy="563.1" r="0.30" fill="#ffffff" opacity="0.85"/>
<circle cx="1313.7" cy="617.4" r="1.14" fill="#ffe9c9" opacity="0.38"/>
<circle cx="1453.1" cy="271.6" r="0.47" fill="#ffd9d9" opacity="0.94"/>
<circle cx="1765.5" cy="247.5" r="0.32" fill="#ffe9c9" opacity="0.53"/>
<circle cx="388.3" cy="1010.1" r="0.61" fill="#ffe9c9" opacity="0.41"/>
<circle cx="1576.0" cy="229.8" r="0.95" fill="#ffd9d9" opacity="0.34"/>
<circle cx="1210.0" cy="812.2" r="0.30" fill="#ffffff" opacity="0.33"/>
<circle cx="1694.6" cy="854.8" r="0.87" fill="#cfe3ff" opacity="0.95"/>
<circle cx="1482.7" cy="941.6" r="1.42" fill="#ffe9c9" opacity="0.45"/>
<circle cx="206.9" cy="109.0" r="1.31" fill="#ffffff" opacity="0.43"/>
<circle cx="1905.6" cy="80.3" r="0.35" fill="#cfe3ff" opacity="0.57"/>
<circle cx="126.3" cy="93.9" r="0.43" fill="#cfe3ff" opacity="0.66"/>
<circle cx="1854.1" cy="523.8" r="0.48" fill="#cfe3ff" opacity="0.63"/>
<circle cx="14.0" cy="477.8" r="1.50" fill="#ffffff" opacity="0.87"/>
<circle cx="1808.4" cy="924.1" r="0.55" fill="#ffffff" opacity="0.50"/>
<circle cx="933.3" cy="433.0" r="0.30" fill="#cfe3ff" opacity="0.45"/>
<circle cx="491.3" cy="543.7" r="0.52" fill="#cfe3ff" opacity="0.66"/>
<circle cx="1635.4" cy="553.7" r="1.43" fill="#cfe3ff" opacity="0.71"/>
<circle cx="483.9" cy="828.5" r="0.30" fill="#cfe3ff" opacity="0.97"/>
<circle cx="407.2" cy="899.0" r="0.38" fill="#cfe3ff" opacity="0.42"/>
<circle cx="1523.9" cy="29.7" r="0.72" fill="#ffffff" opacity="0.45"/>
<circle cx="917.1" cy="979.4" r="0.53" fill="#ffffff" opacity="0.61"/>
<circle cx="1436.9" cy="829.3" r="0.70" fill="#ffffff" opacity="0.48"/>
<circle cx="1678.7" cy="693.0" r="0.65" fill="#ffffff" opacity="0.87"/>
<circle cx="269.8" cy="960.2" r="1.55" fill="#ffffff" opacity="0.43"/>
<circle cx="1251.9" cy="796.9" r="0.78" fill="#ffffff" opacity="0.31"/>
<circle cx="952.0" cy="211.0" r="1.28" fill="#ffffff" opacity="0.32"/>
<circle cx="429.1" cy="64.5" r="2.77" fill="#ffffff" opacity=".95"/>
<circle cx="429.1" cy="64.5" r="8.31" fill="#ffffff" opacity=".08"/>
<circle cx="872.1" cy="1053.9" r="2.96" fill="#ffffff" opacity=".95"/>
<circle cx="872.1" cy="1053.9" r="8.88" fill="#ffffff" opacity=".08"/>
<circle cx="794.6" cy="933.8" r="2.94" fill="#ffffff" opacity=".95"/>
<circle cx="794.6" cy="933.8" r="8.82" fill="#ffffff" opacity=".08"/>
<circle cx="969.2" cy="897.5" r="2.79" fill="#ffffff" opacity=".95"/>
<circle cx="969.2" cy="897.5" r="8.37" fill="#ffffff" opacity=".08"/>
<circle cx="239.1" cy="765.8" r="2.87" fill="#ffffff" opacity=".95"/>
<circle cx="239.1" cy="765.8" r="8.61" fill="#ffffff" opacity=".08"/>
<circle cx="1320.3" cy="432.3" r="2.48" fill="#ffffff" opacity=".95"/>
<circle cx="1320.3" cy="432.3" r="7.44" fill="#ffffff" opacity=".08"/>
<circle cx="1552.6" cy="161.4" r="2.52" fill="#ffffff" opacity=".95"/>
<circle cx="1552.6" cy="161.4" r="7.56" fill="#ffffff" opacity=".08"/>
<circle cx="1456.3" cy="726.0" r="1.90" fill="#ffffff" opacity=".95"/>
<circle cx="1456.3" cy="726.0" r="5.70" fill="#ffffff" opacity=".08"/>
<circle cx="1120.0" cy="560.7" r="2.73" fill="#ffffff" opacity=".95"/>
<circle cx="1120.0" cy="560.7" r="8.19" fill="#ffffff" opacity=".08"/>
<circle cx="226.2" cy="944.4" r="2.81" fill="#ffffff" opacity=".95"/>
<circle cx="226.2" cy="944.4" r="8.43" fill="#ffffff" opacity=".08"/>
<circle cx="522.9" cy="23.4" r="2.62" fill="#ffffff" opacity=".95"/>
<circle cx="522.9" cy="23.4" r="7.86" fill="#ffffff" opacity=".08"/>
<circle cx="616.5" cy="323.2" r="2.16" fill="#ffffff" opacity=".95"/>
<circle cx="616.5" cy="323.2" r="6.48" fill="#ffffff" opacity=".08"/>
<circle cx="920.3" cy="281.1" r="2.70" fill="#ffffff" opacity=".95"/>
<circle cx="920.3" cy="281.1" r="8.10" fill="#ffffff" opacity=".08"/>
<circle cx="1504.1" cy="877.3" r="2.55" fill="#ffffff" opacity=".95"/>
<circle cx="1504.1" cy="877.3" r="7.65" fill="#ffffff" opacity=".08"/>
</svg>
